<mxfile host="app.diagrams.net" agent="Mozilla/5.0 (X11; Linux x86_64) AppleWebKit/537.36 (KHTML, like Gecko) Chrome/131.0.0.0 Safari/537.36" version="25.0.3">
  <diagram name="第 1 页" id="0TXwPWUudd9ZDNKEvNZh">
    <mxGraphModel dx="801" dy="884" grid="1" gridSize="10" guides="1" tooltips="1" connect="1" arrows="1" fold="1" page="1" pageScale="1" pageWidth="827" pageHeight="1169" math="0" shadow="0">
      <root>
        <mxCell id="0" />
        <mxCell id="1" parent="0" />
        <mxCell id="RtleH-vGG0fxem0Mebwh-3" style="edgeStyle=orthogonalEdgeStyle;rounded=0;orthogonalLoop=1;jettySize=auto;html=1;exitX=0.5;exitY=1;exitDx=0;exitDy=0;" edge="1" parent="1" source="RtleH-vGG0fxem0Mebwh-1" target="RtleH-vGG0fxem0Mebwh-2">
          <mxGeometry relative="1" as="geometry" />
        </mxCell>
        <mxCell id="RtleH-vGG0fxem0Mebwh-1" value="開始" style="ellipse;whiteSpace=wrap;html=1;" vertex="1" parent="1">
          <mxGeometry x="300" y="30" width="120" height="80" as="geometry" />
        </mxCell>
        <mxCell id="RtleH-vGG0fxem0Mebwh-5" style="edgeStyle=orthogonalEdgeStyle;rounded=0;orthogonalLoop=1;jettySize=auto;html=1;exitX=0.5;exitY=1;exitDx=0;exitDy=0;entryX=0.5;entryY=0;entryDx=0;entryDy=0;" edge="1" parent="1" source="RtleH-vGG0fxem0Mebwh-2" target="RtleH-vGG0fxem0Mebwh-4">
          <mxGeometry relative="1" as="geometry" />
        </mxCell>
        <mxCell id="RtleH-vGG0fxem0Mebwh-2" value="&lt;p data-pm-slice=&quot;1 1 [&amp;quot;ordered_list&amp;quot;,{&amp;quot;spread&amp;quot;:false,&amp;quot;startingNumber&amp;quot;:1,&amp;quot;start&amp;quot;:1176,&amp;quot;end&amp;quot;:1467},&amp;quot;regular_list_item&amp;quot;,{&amp;quot;start&amp;quot;:1182,&amp;quot;end&amp;quot;:1225}]&quot;&gt;初始化 &lt;code&gt;deque&lt;/code&gt;, &lt;code&gt;unordered_map&lt;/code&gt; (記錄頻率) 和計數器&lt;/p&gt;" style="rounded=1;whiteSpace=wrap;html=1;" vertex="1" parent="1">
          <mxGeometry x="265" y="150" width="190" height="60" as="geometry" />
        </mxCell>
        <mxCell id="RtleH-vGG0fxem0Mebwh-7" style="edgeStyle=orthogonalEdgeStyle;rounded=0;orthogonalLoop=1;jettySize=auto;html=1;entryX=0.5;entryY=0;entryDx=0;entryDy=0;" edge="1" parent="1" source="RtleH-vGG0fxem0Mebwh-4" target="RtleH-vGG0fxem0Mebwh-6">
          <mxGeometry relative="1" as="geometry" />
        </mxCell>
        <mxCell id="RtleH-vGG0fxem0Mebwh-25" style="edgeStyle=orthogonalEdgeStyle;rounded=0;orthogonalLoop=1;jettySize=auto;html=1;exitX=1;exitY=0.5;exitDx=0;exitDy=0;entryX=1;entryY=0.5;entryDx=0;entryDy=0;" edge="1" parent="1" source="RtleH-vGG0fxem0Mebwh-4" target="RtleH-vGG0fxem0Mebwh-22">
          <mxGeometry relative="1" as="geometry">
            <Array as="points">
              <mxPoint x="530" y="290" />
              <mxPoint x="530" y="910" />
            </Array>
          </mxGeometry>
        </mxCell>
        <mxCell id="RtleH-vGG0fxem0Mebwh-4" value="&lt;p data-pm-slice=&quot;1 1 [&amp;quot;ordered_list&amp;quot;,{&amp;quot;spread&amp;quot;:false,&amp;quot;startingNumber&amp;quot;:1,&amp;quot;start&amp;quot;:1176,&amp;quot;end&amp;quot;:1467},&amp;quot;regular_list_item&amp;quot;,{&amp;quot;start&amp;quot;:1226,&amp;quot;end&amp;quot;:1426},&amp;quot;list&amp;quot;,{&amp;quot;spread&amp;quot;:false,&amp;quot;start&amp;quot;:1248,&amp;quot;end&amp;quot;:1426},&amp;quot;regular_list_item&amp;quot;,{&amp;quot;start&amp;quot;:1248,&amp;quot;end&amp;quot;:1426}]&quot;&gt;頁面是否存在於 &lt;code&gt;deque&lt;/code&gt; 中？&lt;/p&gt;" style="rhombus;whiteSpace=wrap;html=1;" vertex="1" parent="1">
          <mxGeometry x="245" y="250" width="230" height="80" as="geometry" />
        </mxCell>
        <mxCell id="RtleH-vGG0fxem0Mebwh-10" style="edgeStyle=orthogonalEdgeStyle;rounded=0;orthogonalLoop=1;jettySize=auto;html=1;entryX=0.5;entryY=0;entryDx=0;entryDy=0;" edge="1" parent="1" source="RtleH-vGG0fxem0Mebwh-6" target="RtleH-vGG0fxem0Mebwh-9">
          <mxGeometry relative="1" as="geometry" />
        </mxCell>
        <mxCell id="RtleH-vGG0fxem0Mebwh-6" value="&lt;p data-pm-slice=&quot;1 1 [&amp;quot;ordered_list&amp;quot;,{&amp;quot;spread&amp;quot;:false,&amp;quot;startingNumber&amp;quot;:1,&amp;quot;start&amp;quot;:1176,&amp;quot;end&amp;quot;:1467},&amp;quot;regular_list_item&amp;quot;,{&amp;quot;start&amp;quot;:1226,&amp;quot;end&amp;quot;:1426},&amp;quot;list&amp;quot;,{&amp;quot;spread&amp;quot;:false,&amp;quot;start&amp;quot;:1248,&amp;quot;end&amp;quot;:1426},&amp;quot;regular_list_item&amp;quot;,{&amp;quot;start&amp;quot;:1248,&amp;quot;end&amp;quot;:1426},&amp;quot;list&amp;quot;,{&amp;quot;spread&amp;quot;:false,&amp;quot;start&amp;quot;:1274,&amp;quot;end&amp;quot;:1426},&amp;quot;regular_list_item&amp;quot;,{&amp;quot;start&amp;quot;:1292,&amp;quot;end&amp;quot;:1426},&amp;quot;list&amp;quot;,{&amp;quot;spread&amp;quot;:false,&amp;quot;start&amp;quot;:1304,&amp;quot;end&amp;quot;:1426},&amp;quot;regular_list_item&amp;quot;,{&amp;quot;start&amp;quot;:1304,&amp;quot;end&amp;quot;:1322}]&quot;&gt;增加 Page Fault 計數&lt;/p&gt;" style="rounded=1;whiteSpace=wrap;html=1;" vertex="1" parent="1">
          <mxGeometry x="285" y="370" width="150" height="60" as="geometry" />
        </mxCell>
        <mxCell id="RtleH-vGG0fxem0Mebwh-8" value="否" style="text;html=1;align=center;verticalAlign=middle;resizable=0;points=[];autosize=1;strokeColor=none;fillColor=none;" vertex="1" parent="1">
          <mxGeometry x="352" y="334" width="40" height="30" as="geometry" />
        </mxCell>
        <mxCell id="RtleH-vGG0fxem0Mebwh-13" style="edgeStyle=orthogonalEdgeStyle;rounded=0;orthogonalLoop=1;jettySize=auto;html=1;entryX=0.5;entryY=0;entryDx=0;entryDy=0;" edge="1" parent="1" source="RtleH-vGG0fxem0Mebwh-9" target="RtleH-vGG0fxem0Mebwh-11">
          <mxGeometry relative="1" as="geometry" />
        </mxCell>
        <mxCell id="RtleH-vGG0fxem0Mebwh-20" style="edgeStyle=orthogonalEdgeStyle;rounded=0;orthogonalLoop=1;jettySize=auto;html=1;exitX=1;exitY=0.5;exitDx=0;exitDy=0;entryX=1;entryY=0.5;entryDx=0;entryDy=0;" edge="1" parent="1" source="RtleH-vGG0fxem0Mebwh-9" target="RtleH-vGG0fxem0Mebwh-18">
          <mxGeometry relative="1" as="geometry">
            <Array as="points">
              <mxPoint x="500" y="510" />
              <mxPoint x="500" y="804" />
            </Array>
          </mxGeometry>
        </mxCell>
        <mxCell id="RtleH-vGG0fxem0Mebwh-9" value="頁匡是否已滿" style="rhombus;whiteSpace=wrap;html=1;" vertex="1" parent="1">
          <mxGeometry x="250" y="470" width="220" height="80" as="geometry" />
        </mxCell>
        <mxCell id="RtleH-vGG0fxem0Mebwh-17" style="edgeStyle=orthogonalEdgeStyle;rounded=0;orthogonalLoop=1;jettySize=auto;html=1;entryX=0.5;entryY=0;entryDx=0;entryDy=0;" edge="1" parent="1" source="RtleH-vGG0fxem0Mebwh-11" target="RtleH-vGG0fxem0Mebwh-15">
          <mxGeometry relative="1" as="geometry" />
        </mxCell>
        <mxCell id="RtleH-vGG0fxem0Mebwh-11" value="&lt;p data-pm-slice=&quot;1 1 [&amp;quot;ordered_list&amp;quot;,{&amp;quot;spread&amp;quot;:false,&amp;quot;startingNumber&amp;quot;:1,&amp;quot;start&amp;quot;:1176,&amp;quot;end&amp;quot;:1467},&amp;quot;regular_list_item&amp;quot;,{&amp;quot;start&amp;quot;:1226,&amp;quot;end&amp;quot;:1426},&amp;quot;list&amp;quot;,{&amp;quot;spread&amp;quot;:false,&amp;quot;start&amp;quot;:1248,&amp;quot;end&amp;quot;:1426},&amp;quot;regular_list_item&amp;quot;,{&amp;quot;start&amp;quot;:1248,&amp;quot;end&amp;quot;:1426},&amp;quot;list&amp;quot;,{&amp;quot;spread&amp;quot;:false,&amp;quot;start&amp;quot;:1274,&amp;quot;end&amp;quot;:1426},&amp;quot;regular_list_item&amp;quot;,{&amp;quot;start&amp;quot;:1292,&amp;quot;end&amp;quot;:1426},&amp;quot;list&amp;quot;,{&amp;quot;spread&amp;quot;:false,&amp;quot;start&amp;quot;:1304,&amp;quot;end&amp;quot;:1426},&amp;quot;regular_list_item&amp;quot;,{&amp;quot;start&amp;quot;:1330,&amp;quot;end&amp;quot;:1396},&amp;quot;list&amp;quot;,{&amp;quot;spread&amp;quot;:false,&amp;quot;start&amp;quot;:1348,&amp;quot;end&amp;quot;:1396},&amp;quot;regular_list_item&amp;quot;,{&amp;quot;start&amp;quot;:1348,&amp;quot;end&amp;quot;:1359}]&quot;&gt;找到頻率最高的頁面&lt;/p&gt;" style="rounded=1;whiteSpace=wrap;html=1;" vertex="1" parent="1">
          <mxGeometry x="290" y="585" width="140" height="60" as="geometry" />
        </mxCell>
        <mxCell id="RtleH-vGG0fxem0Mebwh-14" value="是" style="text;html=1;align=center;verticalAlign=middle;resizable=0;points=[];autosize=1;strokeColor=none;fillColor=none;" vertex="1" parent="1">
          <mxGeometry x="351" y="550" width="40" height="30" as="geometry" />
        </mxCell>
        <mxCell id="RtleH-vGG0fxem0Mebwh-19" style="edgeStyle=orthogonalEdgeStyle;rounded=0;orthogonalLoop=1;jettySize=auto;html=1;exitX=0.5;exitY=1;exitDx=0;exitDy=0;entryX=0.5;entryY=0;entryDx=0;entryDy=0;" edge="1" parent="1" source="RtleH-vGG0fxem0Mebwh-15" target="RtleH-vGG0fxem0Mebwh-18">
          <mxGeometry relative="1" as="geometry" />
        </mxCell>
        <mxCell id="RtleH-vGG0fxem0Mebwh-15" value="&lt;p data-pm-slice=&quot;1 1 [&amp;quot;ordered_list&amp;quot;,{&amp;quot;spread&amp;quot;:false,&amp;quot;startingNumber&amp;quot;:1,&amp;quot;start&amp;quot;:1176,&amp;quot;end&amp;quot;:1467},&amp;quot;regular_list_item&amp;quot;,{&amp;quot;start&amp;quot;:1226,&amp;quot;end&amp;quot;:1426},&amp;quot;list&amp;quot;,{&amp;quot;spread&amp;quot;:false,&amp;quot;start&amp;quot;:1248,&amp;quot;end&amp;quot;:1426},&amp;quot;regular_list_item&amp;quot;,{&amp;quot;start&amp;quot;:1248,&amp;quot;end&amp;quot;:1426},&amp;quot;list&amp;quot;,{&amp;quot;spread&amp;quot;:false,&amp;quot;start&amp;quot;:1274,&amp;quot;end&amp;quot;:1426},&amp;quot;regular_list_item&amp;quot;,{&amp;quot;start&amp;quot;:1292,&amp;quot;end&amp;quot;:1426},&amp;quot;list&amp;quot;,{&amp;quot;spread&amp;quot;:false,&amp;quot;start&amp;quot;:1304,&amp;quot;end&amp;quot;:1426},&amp;quot;regular_list_item&amp;quot;,{&amp;quot;start&amp;quot;:1330,&amp;quot;end&amp;quot;:1396},&amp;quot;list&amp;quot;,{&amp;quot;spread&amp;quot;:false,&amp;quot;start&amp;quot;:1348,&amp;quot;end&amp;quot;:1396},&amp;quot;regular_list_item&amp;quot;,{&amp;quot;start&amp;quot;:1369,&amp;quot;end&amp;quot;:1396}]&quot;&gt;若有多個頁面頻率相同，&lt;span style=&quot;background-color: initial;&quot;&gt;按 FIFO 移除最早的頁面&lt;/span&gt;&lt;/p&gt;" style="rounded=1;whiteSpace=wrap;html=1;" vertex="1" parent="1">
          <mxGeometry x="290" y="680" width="140" height="60" as="geometry" />
        </mxCell>
        <mxCell id="RtleH-vGG0fxem0Mebwh-24" style="edgeStyle=orthogonalEdgeStyle;rounded=0;orthogonalLoop=1;jettySize=auto;html=1;exitX=0.5;exitY=1;exitDx=0;exitDy=0;entryX=0.5;entryY=0;entryDx=0;entryDy=0;" edge="1" parent="1" source="RtleH-vGG0fxem0Mebwh-18" target="RtleH-vGG0fxem0Mebwh-22">
          <mxGeometry relative="1" as="geometry" />
        </mxCell>
        <mxCell id="RtleH-vGG0fxem0Mebwh-18" value="&lt;p data-pm-slice=&quot;1 1 [&amp;quot;ordered_list&amp;quot;,{&amp;quot;spread&amp;quot;:false,&amp;quot;startingNumber&amp;quot;:1,&amp;quot;start&amp;quot;:1176,&amp;quot;end&amp;quot;:1467},&amp;quot;regular_list_item&amp;quot;,{&amp;quot;start&amp;quot;:1226,&amp;quot;end&amp;quot;:1426},&amp;quot;list&amp;quot;,{&amp;quot;spread&amp;quot;:false,&amp;quot;start&amp;quot;:1248,&amp;quot;end&amp;quot;:1426},&amp;quot;regular_list_item&amp;quot;,{&amp;quot;start&amp;quot;:1248,&amp;quot;end&amp;quot;:1426},&amp;quot;list&amp;quot;,{&amp;quot;spread&amp;quot;:false,&amp;quot;start&amp;quot;:1274,&amp;quot;end&amp;quot;:1426},&amp;quot;regular_list_item&amp;quot;,{&amp;quot;start&amp;quot;:1292,&amp;quot;end&amp;quot;:1426},&amp;quot;list&amp;quot;,{&amp;quot;spread&amp;quot;:false,&amp;quot;start&amp;quot;:1304,&amp;quot;end&amp;quot;:1426},&amp;quot;regular_list_item&amp;quot;,{&amp;quot;start&amp;quot;:1404,&amp;quot;end&amp;quot;:1426}]&quot;&gt;新頁面加入 &lt;code&gt;deque&lt;/code&gt;，頻率設為 1&lt;/p&gt;" style="rounded=1;whiteSpace=wrap;html=1;" vertex="1" parent="1">
          <mxGeometry x="300" y="774" width="120" height="60" as="geometry" />
        </mxCell>
        <mxCell id="RtleH-vGG0fxem0Mebwh-21" value="否" style="text;html=1;align=center;verticalAlign=middle;resizable=0;points=[];autosize=1;strokeColor=none;fillColor=none;" vertex="1" parent="1">
          <mxGeometry x="460" y="511" width="40" height="30" as="geometry" />
        </mxCell>
        <mxCell id="RtleH-vGG0fxem0Mebwh-27" style="edgeStyle=orthogonalEdgeStyle;rounded=0;orthogonalLoop=1;jettySize=auto;html=1;entryX=0;entryY=0.5;entryDx=0;entryDy=0;" edge="1" parent="1" source="RtleH-vGG0fxem0Mebwh-22" target="RtleH-vGG0fxem0Mebwh-4">
          <mxGeometry relative="1" as="geometry">
            <Array as="points">
              <mxPoint x="225" y="910" />
              <mxPoint x="225" y="290" />
            </Array>
          </mxGeometry>
        </mxCell>
        <mxCell id="RtleH-vGG0fxem0Mebwh-30" style="edgeStyle=orthogonalEdgeStyle;rounded=0;orthogonalLoop=1;jettySize=auto;html=1;exitX=0.5;exitY=1;exitDx=0;exitDy=0;entryX=0.5;entryY=0;entryDx=0;entryDy=0;" edge="1" parent="1" source="RtleH-vGG0fxem0Mebwh-22" target="RtleH-vGG0fxem0Mebwh-29">
          <mxGeometry relative="1" as="geometry" />
        </mxCell>
        <mxCell id="RtleH-vGG0fxem0Mebwh-22" value="是否還有頁面要放入deque" style="rhombus;whiteSpace=wrap;html=1;" vertex="1" parent="1">
          <mxGeometry x="255" y="870" width="210" height="80" as="geometry" />
        </mxCell>
        <mxCell id="RtleH-vGG0fxem0Mebwh-26" value="是" style="text;html=1;align=center;verticalAlign=middle;resizable=0;points=[];autosize=1;strokeColor=none;fillColor=none;" vertex="1" parent="1">
          <mxGeometry x="482" y="291" width="40" height="30" as="geometry" />
        </mxCell>
        <mxCell id="RtleH-vGG0fxem0Mebwh-28" value="是" style="text;html=1;align=center;verticalAlign=middle;resizable=0;points=[];autosize=1;strokeColor=none;fillColor=none;" vertex="1" parent="1">
          <mxGeometry x="220" y="878" width="40" height="30" as="geometry" />
        </mxCell>
        <mxCell id="RtleH-vGG0fxem0Mebwh-34" style="edgeStyle=orthogonalEdgeStyle;rounded=0;orthogonalLoop=1;jettySize=auto;html=1;exitX=0.5;exitY=1;exitDx=0;exitDy=0;entryX=0.5;entryY=0;entryDx=0;entryDy=0;" edge="1" parent="1" source="RtleH-vGG0fxem0Mebwh-29" target="RtleH-vGG0fxem0Mebwh-33">
          <mxGeometry relative="1" as="geometry" />
        </mxCell>
        <mxCell id="RtleH-vGG0fxem0Mebwh-29" value="&lt;p data-pm-slice=&quot;1 1 [&amp;quot;ordered_list&amp;quot;,{&amp;quot;spread&amp;quot;:false,&amp;quot;startingNumber&amp;quot;:1,&amp;quot;start&amp;quot;:1176,&amp;quot;end&amp;quot;:1467},&amp;quot;regular_list_item&amp;quot;,{&amp;quot;start&amp;quot;:1427,&amp;quot;end&amp;quot;:1461}]&quot;&gt;輸出 Page Fault 和 Page Replace 次數&lt;/p&gt;" style="rounded=1;whiteSpace=wrap;html=1;" vertex="1" parent="1">
          <mxGeometry x="300" y="990" width="120" height="60" as="geometry" />
        </mxCell>
        <mxCell id="RtleH-vGG0fxem0Mebwh-32" value="否" style="text;html=1;align=center;verticalAlign=middle;resizable=0;points=[];autosize=1;strokeColor=none;fillColor=none;" vertex="1" parent="1">
          <mxGeometry x="358" y="951" width="40" height="30" as="geometry" />
        </mxCell>
        <mxCell id="RtleH-vGG0fxem0Mebwh-33" value="結束" style="ellipse;whiteSpace=wrap;html=1;" vertex="1" parent="1">
          <mxGeometry x="300" y="1080" width="120" height="80" as="geometry" />
        </mxCell>
      </root>
    </mxGraphModel>
  </diagram>
</mxfile>
